<svg width="200" height="36" viewBox="0 0 200 36" version="1.1" xmlns="http://www.w3.org/2000/svg" xmlns:xlink="http://www.w3.org/1999/xlink">
<g id="Canvas" fill="none">
<g id="FlowChamp">
<path d="M 5.112 33.18C 4.656 33.18 4.272 33.024 3.96 32.712C 3.648 32.4 3.492 32.016 3.492 31.56L 3.492 9.528C 3.492 9.072 3.648 8.688 3.96 8.376C 4.272 8.04 4.656 7.872 5.112 7.872L 19.116 7.872C 19.548 7.872 19.908 8.028 20.196 8.34C 20.508 8.628 20.664 8.988 20.664 9.42C 20.664 9.852 20.508 10.212 20.196 10.5C 19.908 10.788 19.548 10.932 19.116 10.932L 6.768 10.932L 6.768 18.888L 17.856 18.888C 18.288 18.888 18.648 19.044 18.936 19.356C 19.248 19.644 19.404 20.004 19.404 20.436C 19.404 20.868 19.248 21.228 18.936 21.516C 18.648 21.804 18.288 21.948 17.856 21.948L 6.768 21.948L 6.768 31.56C 6.768 32.016 6.6 32.4 6.264 32.712C 5.952 33.024 5.568 33.18 5.112 33.18ZM 26.1202 33.18C 25.6642 33.18 25.2802 33.024 24.9683 32.712C 24.6563 32.4 24.5003 32.016 24.5003 31.56L 24.5003 8.196C 24.5003 7.74 24.6563 7.356 24.9683 7.044C 25.2802 6.708 25.6642 6.54 26.1202 6.54C 26.6002 6.54 26.9962 6.696 27.3083 7.008C 27.6203 7.32 27.7763 7.716 27.7763 8.196L 27.7763 31.56C 27.7763 32.016 27.6083 32.4 27.2723 32.712C 26.9603 33.024 26.5763 33.18 26.1202 33.18ZM 41.5651 33.36C 39.7171 33.36 38.0971 32.964 36.7051 32.172C 35.3131 31.38 34.2331 30.264 33.4651 28.824C 32.7211 27.36 32.3491 25.692 32.3491 23.82C 32.3491 21.948 32.7211 20.292 33.4651 18.852C 34.2331 17.388 35.3131 16.26 36.7051 15.468C 38.0971 14.676 39.7171 14.28 41.5651 14.28C 43.3891 14.28 44.9971 14.676 46.3891 15.468C 47.7811 16.26 48.8611 17.388 49.6291 18.852C 50.3971 20.292 50.7811 21.948 50.7811 23.82C 50.7811 25.692 50.3971 27.36 49.6291 28.824C 48.8611 30.264 47.7811 31.38 46.3891 32.172C 44.9971 32.964 43.3891 33.36 41.5651 33.36ZM 41.5651 30.372C 42.5491 30.372 43.4851 30.144 44.3731 29.688C 45.2851 29.232 46.0291 28.512 46.6051 27.528C 47.2051 26.544 47.5051 25.296 47.5051 23.784C 47.5051 22.296 47.2051 21.06 46.6051 20.076C 46.0291 19.092 45.2851 18.384 44.3731 17.952C 43.4851 17.496 42.5491 17.268 41.5651 17.268C 40.5571 17.268 39.5971 17.496 38.6851 17.952C 37.7971 18.384 37.0651 19.092 36.4891 20.076C 35.9131 21.06 35.6251 22.296 35.6251 23.784C 35.6251 25.296 35.9131 26.544 36.4891 27.528C 37.0651 28.512 37.7971 29.232 38.6851 29.688C 39.5971 30.144 40.5571 30.372 41.5651 30.372ZM 60.5933 33.18C 60.1133 33.18 59.6813 33.036 59.2973 32.748C 58.9133 32.46 58.6493 32.1 58.5053 31.668L 53.3933 16.692C 53.3213 16.476 53.2853 16.272 53.2853 16.08C 53.2853 15.624 53.4413 15.24 53.7533 14.928C 54.0653 14.616 54.4493 14.46 54.9053 14.46C 55.2413 14.46 55.5413 14.556 55.8053 14.748C 56.0933 14.916 56.2853 15.144 56.3813 15.432L 60.5933 29.292L 64.7693 15.756C 64.8893 15.372 65.1053 15.06 65.4173 14.82C 65.7533 14.58 66.1253 14.46 66.5333 14.46C 66.9413 14.46 67.3013 14.58 67.6133 14.82C 67.9493 15.06 68.1773 15.372 68.2973 15.756L 72.4733 29.292L 76.6853 15.432C 76.7813 15.144 76.9613 14.916 77.2253 14.748C 77.5133 14.556 77.8253 14.46 78.1613 14.46C 78.6173 14.46 79.0013 14.616 79.3133 14.928C 79.6253 15.24 79.7813 15.624 79.7813 16.08C 79.7813 16.272 79.7453 16.476 79.6733 16.692L 74.5613 31.668C 74.4173 32.1 74.1533 32.46 73.7693 32.748C 73.3853 33.036 72.9533 33.18 72.4733 33.18C 71.9933 33.18 71.5613 33.036 71.1773 32.748C 70.7933 32.46 70.5173 32.088 70.3493 31.632L 66.5333 19.716L 62.7173 31.632C 62.5493 32.088 62.2733 32.46 61.8893 32.748C 61.5053 33.036 61.0733 33.18 60.5933 33.18Z" transform="translate(-3 -6)" fill="#4F4F4F"/>
<path d="M 95.3691 33.36C 92.9691 33.36 90.8091 32.844 88.8891 31.812C 86.9931 30.756 85.4931 29.256 84.3891 27.312C 83.3091 25.344 82.7691 23.052 82.7691 20.436C 82.7691 17.82 83.3091 15.54 84.3891 13.596C 85.4931 11.628 86.9931 10.128 88.8891 9.096C 90.8091 8.04 92.9691 7.512 95.3691 7.512C 97.0011 7.512 98.4531 7.704 99.7251 8.088C 101.021 8.472 102.305 9.024 103.577 9.744C 104.105 10.032 104.369 10.488 104.369 11.112C 104.369 11.472 104.237 11.796 103.973 12.084C 103.709 12.348 103.361 12.48 102.929 12.48C 102.689 12.48 102.473 12.432 102.281 12.336C 101.225 11.784 100.193 11.364 99.1851 11.076C 98.1771 10.788 97.0131 10.644 95.6931 10.644C 93.6291 10.644 91.8651 11.076 90.4011 11.94C 88.9611 12.78 87.8691 13.944 87.1251 15.432C 86.4051 16.896 86.0451 18.564 86.0451 20.436C 86.0451 22.308 86.4051 23.988 87.1251 25.476C 87.8691 26.94 88.9611 28.104 90.4011 28.968C 91.8651 29.808 93.6291 30.228 95.6931 30.228C 97.0131 30.228 98.1771 30.084 99.1851 29.796C 100.193 29.508 101.225 29.088 102.281 28.536C 102.473 28.44 102.689 28.392 102.929 28.392C 103.361 28.392 103.709 28.524 103.973 28.788C 104.237 29.052 104.369 29.376 104.369 29.76C 104.369 30.384 104.105 30.84 103.577 31.128C 102.305 31.848 101.021 32.4 99.7251 32.784C 98.4531 33.168 97.0011 33.36 95.3691 33.36ZM 110.284 33.18C 109.828 33.18 109.444 33.024 109.132 32.712C 108.82 32.4 108.664 32.016 108.664 31.56L 108.664 8.196C 108.664 7.74 108.82 7.356 109.132 7.044C 109.444 6.708 109.828 6.54 110.284 6.54C 110.74 6.54 111.124 6.708 111.436 7.044C 111.772 7.356 111.94 7.74 111.94 8.196L 111.94 17.592C 112.852 16.584 113.836 15.78 114.892 15.18C 115.948 14.58 117.196 14.28 118.636 14.28C 119.956 14.28 121.096 14.592 122.056 15.216C 123.04 15.84 123.784 16.692 124.288 17.772C 124.816 18.852 125.08 20.04 125.08 21.336L 125.08 31.56C 125.08 32.016 124.912 32.4 124.576 32.712C 124.264 33.024 123.88 33.18 123.424 33.18C 122.968 33.18 122.584 33.024 122.272 32.712C 121.96 32.4 121.804 32.016 121.804 31.56L 121.804 21.696C 121.804 18.768 120.484 17.304 117.844 17.304C 116.644 17.304 115.564 17.616 114.604 18.24C 113.668 18.864 112.78 19.704 111.94 20.76L 111.94 31.56C 111.94 32.016 111.772 32.4 111.436 32.712C 111.124 33.024 110.74 33.18 110.284 33.18ZM 135.282 33.36C 134.226 33.36 133.242 33.144 132.33 32.712C 131.442 32.28 130.734 31.656 130.206 30.84C 129.678 30 129.414 29.04 129.414 27.96C 129.414 26.184 130.11 24.768 131.502 23.712C 132.918 22.656 134.982 22.128 137.694 22.128L 142.05 22.128L 142.05 21.84C 142.05 20.256 141.654 19.116 140.862 18.42C 140.094 17.724 138.882 17.376 137.226 17.376C 136.314 17.376 135.498 17.448 134.778 17.592C 134.082 17.736 133.302 17.952 132.438 18.24C 132.246 18.288 132.09 18.312 131.97 18.312C 131.61 18.312 131.298 18.18 131.034 17.916C 130.77 17.652 130.638 17.328 130.638 16.944C 130.638 16.296 130.95 15.84 131.574 15.576C 133.614 14.712 135.69 14.28 137.802 14.28C 139.458 14.28 140.85 14.616 141.978 15.288C 143.13 15.96 143.97 16.836 144.498 17.916C 145.05 18.972 145.326 20.124 145.326 21.372L 145.326 31.56C 145.326 32.016 145.158 32.4 144.822 32.712C 144.51 33.024 144.126 33.18 143.67 33.18C 143.214 33.18 142.83 33.024 142.518 32.712C 142.206 32.4 142.05 32.016 142.05 31.56L 142.05 30.624C 140.274 32.448 138.018 33.36 135.282 33.36ZM 136.506 30.48C 137.562 30.48 138.582 30.228 139.566 29.724C 140.55 29.196 141.378 28.548 142.05 27.78L 142.05 24.756L 138.126 24.756C 134.502 24.756 132.69 25.704 132.69 27.6C 132.69 28.464 132.978 29.16 133.554 29.688C 134.154 30.216 135.138 30.48 136.506 30.48ZM 152.437 33.18C 151.981 33.18 151.597 33.024 151.285 32.712C 150.973 32.4 150.817 32.016 150.817 31.56L 150.817 16.116C 150.817 15.66 150.973 15.276 151.285 14.964C 151.597 14.628 151.981 14.46 152.437 14.46C 152.893 14.46 153.277 14.628 153.589 14.964C 153.925 15.276 154.093 15.66 154.093 16.116L 154.093 17.592C 154.765 16.632 155.569 15.84 156.505 15.216C 157.465 14.592 158.701 14.28 160.213 14.28C 161.557 14.28 162.709 14.64 163.669 15.36C 164.629 16.08 165.313 16.956 165.721 17.988C 167.209 15.516 169.417 14.28 172.345 14.28C 173.689 14.28 174.805 14.616 175.693 15.288C 176.605 15.96 177.277 16.824 177.709 17.88C 178.141 18.936 178.357 20.04 178.357 21.192L 178.357 31.56C 178.357 32.016 178.189 32.4 177.853 32.712C 177.541 33.024 177.157 33.18 176.701 33.18C 176.245 33.18 175.861 33.024 175.549 32.712C 175.237 32.4 175.081 32.016 175.081 31.56L 175.081 21.84C 175.081 20.28 174.805 19.14 174.253 18.42C 173.701 17.676 172.753 17.304 171.409 17.304C 170.185 17.304 169.165 17.628 168.349 18.276C 167.557 18.9 166.849 19.728 166.225 20.76L 166.225 31.56C 166.225 32.016 166.057 32.4 165.721 32.712C 165.409 33.024 165.025 33.18 164.569 33.18C 164.113 33.18 163.729 33.024 163.417 32.712C 163.105 32.4 162.949 32.016 162.949 31.56L 162.949 21.84C 162.949 20.28 162.673 19.14 162.121 18.42C 161.569 17.676 160.621 17.304 159.277 17.304C 158.053 17.304 157.033 17.628 156.217 18.276C 155.425 18.9 154.717 19.728 154.093 20.76L 154.093 31.56C 154.093 32.016 153.925 32.4 153.589 32.712C 153.277 33.024 152.893 33.18 152.437 33.18ZM 185.484 41.46C 185.028 41.46 184.644 41.292 184.332 40.956C 184.02 40.644 183.864 40.26 183.864 39.804L 183.864 16.08C 183.864 15.624 184.02 15.24 184.332 14.928C 184.644 14.616 185.028 14.46 185.484 14.46C 185.94 14.46 186.324 14.616 186.636 14.928C 186.972 15.24 187.14 15.624 187.14 16.08L 187.14 17.016C 188.892 15.192 190.944 14.28 193.296 14.28C 194.784 14.28 196.188 14.664 197.508 15.432C 198.852 16.176 199.932 17.28 200.748 18.744C 201.588 20.184 202.008 21.876 202.008 23.82C 202.008 25.764 201.588 27.468 200.748 28.932C 199.932 30.372 198.852 31.476 197.508 32.244C 196.188 32.988 194.784 33.36 193.296 33.36C 190.944 33.36 188.892 32.448 187.14 30.624L 187.14 39.804C 187.14 40.284 186.984 40.68 186.672 40.992C 186.36 41.304 185.964 41.46 185.484 41.46ZM 192.828 30.3C 194.604 30.3 196.032 29.736 197.112 28.608C 198.192 27.48 198.732 25.884 198.732 23.82C 198.732 21.756 198.192 20.16 197.112 19.032C 196.032 17.904 194.604 17.34 192.828 17.34C 191.724 17.34 190.68 17.592 189.696 18.096C 188.736 18.576 187.884 19.224 187.14 20.04L 187.14 27.6C 187.884 28.416 188.736 29.076 189.696 29.58C 190.68 30.06 191.724 30.3 192.828 30.3Z" transform="translate(-3 -6)" fill="#2D9CDB"/>
</g>
</g>
</svg>

